<?xml version="1.0" encoding="utf-8"?>
<!-- Generator: Adobe Illustrator 19.1.0, SVG Export Plug-In . SVG Version: 6.00 Build 0)  -->
<!DOCTYPE svg PUBLIC "-//W3C//DTD SVG 1.1//EN" "http://www.w3.org/Graphics/SVG/1.1/DTD/svg11.dtd">
<svg version="1.1" id="Layer_1" xmlns="http://www.w3.org/2000/svg" xmlns:xlink="http://www.w3.org/1999/xlink" x="0px" y="0px"
	 viewBox="0 0 256 256" enable-background="new 0 0 256 256" xml:space="preserve">
<g>
	<path fill="#0D0D0D" d="M128.5,45c-31.9,0-57.7,25.8-57.7,57.7c0,31.9,25.8,57.7,57.7,57.7c31.9,0,57.7-25.8,57.7-57.7
		C186.2,70.9,160.4,45,128.5,45z M148.2,95c-1.6,0.2-3.2,0.4-4.7,0.6c-0.9-6.7-4.1-11-9.9-13c-5.8-2-15.9-1.6-18.2,3.2
		c-0.8,1.6-0.8,4.1-0.1,5.6c1.5,2.8,6.1,4,9.7,4.8c4.3,0.9,8.3,1.4,12.1,2.4c7.5,2,13.7,5.5,13.7,15.1c0,9.4-5.4,14.1-13.1,15.7
		c-3.7,0.8-9.2,0.9-13.2,0.1c-2.9-0.6-5.4-1.6-7.7-3.1c-0.7-0.4-1.7-1.1-2.6-1c-1.6,0.1-2.6,2.4-3.3,3.5c-1.5,0-3.1,0-4.6,0
		c0-6.4,0-12.8,0-19.2c1.5-0.2,3-0.3,4.6-0.4c0.9,8.2,6.3,12.9,13.7,14.4c4,0.8,9.1,0.6,12.3-0.8c3.2-1.4,5.5-4.7,5-9
		c-0.2-1.8-1.6-3.1-3-3.9c-2.3-1.2-5.2-1.7-8.1-2.2c-11.8-2-23.8-3.4-24.3-17c-0.3-10,6.7-14.8,15.9-15.2c6-0.3,10.5,0.6,14.4,2.5
		c1.2,0.6,2.6,1.7,4,1.6c1.7-0.1,2.5-1.9,3.6-2.9c1.2,0,2.5,0,3.7,0"/>
</g>
<g>
	<path fill="#282829" d="M31.7,193.3c-0.4-1.5-1.7-2.2-2.9-2.2c-1.2,0-1.9,0.6-1.9,1.3c0,1.1,1.7,1.5,3.7,2.2
		c2.5,0.9,5.1,2.3,5.1,5.2c0,3-2.6,5.2-6.5,5.2c-3.5,0-5.9-1.9-7-5l3.8-1c0.4,1.3,1.6,2.5,3.4,2.5c1.4,0,2.1-0.7,2.1-1.5
		c0-1.3-1.9-1.7-4.3-2.6c-2-0.8-4.3-1.8-4.3-4.8c0-2.6,2.6-4.9,6.2-4.9c3.2,0,5.7,1.9,6.5,4.6L31.7,193.3z"/>
	<path fill="#282829" d="M59.9,188v16.6h-4v-6.5h-6.2v6.5h-4V188h4v6.4h6.2V188H59.9z"/>
	<path fill="#282829" d="M78.6,187.7c4.8,0,8.6,3.6,8.6,8.6s-3.9,8.6-8.6,8.6c-4.8,0-8.6-3.6-8.6-8.6S73.9,187.7,78.6,187.7z
		 M78.6,201c2.7,0,4.5-1.9,4.5-4.7c0-2.8-1.8-4.7-4.5-4.7c-2.7,0-4.5,1.9-4.5,4.7C74.2,199.1,76,201,78.6,201z"/>
	<path fill="#282829" d="M106.5,204.6l-3.1-5.4h-2v5.4h-4V188h6.2c4.2,0,6.7,2.3,6.7,5.7c0,2.2-1.1,3.9-3,4.8l3.7,6.1H106.5z
		 M101.3,195.7h2.8c1.4,0,2-1.1,2-2c0-0.9-0.6-2-2-2h-2.8V195.7z"/>
	<path fill="#282829" d="M133.5,188v3.7h-5.1v12.9h-4v-12.9h-5V188H133.5z"/>
	<path fill="#282829" d="M157.4,188v16.6h-4v-6.5h-6.2v6.5h-4V188h4v6.4h6.2V188H157.4z"/>
	<path fill="#282829" d="M178.2,202h-6.6l-1,2.6h-4.3L173,188h3.8l6.6,16.6h-4.3L178.2,202z M176.9,198.5l-1.2-3.2
		c-0.4-1-0.8-2.4-0.8-2.4h0c0,0-0.5,1.5-0.8,2.4l-1.2,3.2H176.9z"/>
	<path fill="#282829" d="M206.8,188v16.6h-3.8l-3.4-4.6c-1.5-2.1-3.7-5.2-3.8-5.2h0c0,0,0,2.6,0,6.2v3.7h-4V188h3.8l3.5,4.7
		c1.1,1.4,3.6,5,3.6,5h0c0,0,0-2.9,0-6V188H206.8z"/>
	<path fill="#282829" d="M224.4,188c4.7,0,8.6,3.4,8.6,8.4s-3.8,8.2-8.6,8.2h-7.3V188H224.4z M224.4,200.9c2.4,0,4.4-1.7,4.4-4.5
		s-2.1-4.7-4.4-4.7h-3.3v9.2H224.4z"/>
</g>
</svg>
